<?xml version="1.0" encoding="UTF-8"?>
<svg id="Ebene_2" data-name="Ebene 2" xmlns="http://www.w3.org/2000/svg" viewBox="0 0 4964.49 1799.43">
  <defs>
    <style>
      .cls-1 {
        fill: #332f2a;
        stroke-width: 0px;
      }
    </style>
  </defs>
  <g id="Ebene_1-2" data-name="Ebene 1">
    <g>
      <path class="cls-1" d="m1185.92,292.65c7.92,7.92,10.73,19.18,16.06,28.68.42.75,1.44.96,2.11.42,7.7-6.09,10.04-20.74,16.98-28.37,6.9-7.14,19.37-9.64,27.23-16.32.38-.32.55-.83.47-1.32-.07-.43-.32-.8-.7-1.01-8.25-4.68-19.34-7.64-25.54-14.55l-1.16-1.16s-.07-.08-.11-.12c-6.84-8.25-9.84-20.97-16.83-28.54-.67-.73-1.88-.54-2.32.35-7.93,16.03-11.97,29.05-29.63,37.29-5.38,2.47-10.96,4.52-15.62,8.05-.74.56-.79,1.66-.07,2.25,5.33,4.4,23.32,8.56,29.12,14.36Z"/>
      <path class="cls-1" d="m197.7,695.4c13.04,7.04,26.17,7.83,37.59,19.93,1.95,2.2,4.15,4.64,5.86,7.33,1.71,2.69,3.42,5.37,4.88,8.06,3.37,6.07,6.12,19.78,11.86,24.21.83.64,1.97.68,2.86.13.43-.27.77-.67.97-1.13,10.83-24.78,18.99-42.6,46.32-53.24,3.99-1.4,10.6-2.8,14.61-5.53,1.45-.99,1.49-3.1.07-4.13-7.8-5.63-31.4-13.12-41.78-25.01-9.77-10.99-11.48-27.35-19.04-37.11-.76-1.02-1.46-1.57-2.27-1.97-1.34-.67-2.97.04-3.45,1.45-5.97,17.31-11.12,34.99-26.75,46.43-4.7,3.47-24.94,11.21-32.01,16.37-1.48,1.08-1.34,3.36.28,4.23Z"/>
      <path class="cls-1" d="m502.85,303.98c0,1.22.24,2.2.49,3.17.24,1.22.49,2.2.73,3.17,4.39,15.87,14.65,30.52,29.3,38.33,14.16,7.57,30.28,8.06,45.41,2.93,17.82-5.86,30.28-18.56,38.58-34.92,9.77,77.64,13.92,113.05,72.76,171.16,56.4-58.11,63.97-92.78,73.49-170.67,8.79,16.85,20.75,29.79,39.55,35.65,6.35,1.95,12.45,2.69,19.04,2.44,18.56-3.42,34.92-10.01,46.15-26.13,9.52-13.43,13.18-31.74,10.01-47.86-3.17-16.6-13.92-30.76-28.08-39.55-13.43-8.06-29.06-10.74-44.19-6.84-18.07,4.64-31.99,18.07-41.02,33.94-9.77,17.58-14.41,38.09-21.24,56.89-13.18,36.62-31.01,72.76-53.72,104.5-15.63-25.64-30.52-51.03-42.48-78.62-17.09-39.55-24.17-105.48-73.98-117.2-7.32-1.71-15.14-1.71-22.71-.98-17.09,4.64-30.76,12.7-40.04,27.83-.49.73-.98,1.71-1.46,2.69l-1.47,2.93c-.49.98-.73,1.95-1.22,2.93-.49.98-.98,1.95-1.22,2.93-.24.98-.73,1.95-.98,2.93s-.49,1.95-.73,2.93c-.24,1.22-.49,2.2-.73,3.17-.24.98-.24,2.2-.49,3.17,0,.98-.24,2.2-.24,3.17-.24.98-.24,2.2-.24,3.17v6.35c0,.98.24,2.2.24,3.17.24,1.22.24,2.2.49,3.17Zm307.53-51.29c12.85,0,23.27,10.42,23.27,23.27s-10.42,23.27-23.27,23.27-23.27-10.42-23.27-23.27,10.42-23.27,23.27-23.27Zm-261.49-.31c12.85,0,23.27,10.42,23.27,23.27s-10.42,23.27-23.27,23.27-23.27-10.42-23.27-23.27,10.42-23.27,23.27-23.27Z"/>
      <rect class="cls-1" x="260.08" y="957.64" width="125.33" height="47"/>
      <rect class="cls-1" x="260.08" y="1057.44" width="204" height="47"/>
      <circle class="cls-1" cx="671.86" cy="1072.94" r="36.58" transform="translate(-317.28 282.87) rotate(-19.33)"/>
      <path class="cls-1" d="m1500.26,973.24c-24.42-21-44.44-45.17-61.53-72.27-32.96-52.01-56.89-116.47-83.75-172.62-75.2-157.49-184.59-296.42-342.32-376.75,15.38-72.27,4.4-145.77-36.14-208.03-45.66-70.32-122.57-118.42-204.12-135.27-2.93-.49-6.1-1.22-9.03-1.71-2.93-.49-5.86-.98-9.03-1.46s-6.1-.98-9.28-1.47c-3.17-.49-6.1-.98-9.28-1.22-3.17-.49-6.1-.73-9.28-.98-3.17-.24-6.1-.49-9.28-.73s-6.1-.49-9.28-.49c-3.17-.24-6.1-.24-9.28-.24h-9.28c-3.17,0-6.1.24-9.28.24-3.17.24-6.1.24-9.28.49s-6.1.49-9.28.73-6.1.73-9.28.98c-3.17.49-6.1.73-9.28,1.22-3.17.49-6.1.98-9.28,1.47-2.93.49-6.1,1.22-9.03,1.71-2.93.49-6.1.98-9.03,1.71-2.93.49-6.1,1.22-9.03,1.95-2.93.73-6.1,1.46-9.03,2.2-3.17.73-6.1,1.47-9.03,2.44-2.93.73-5.86,1.71-8.79,2.69-2.93.98-5.86,1.95-8.79,2.93-2.93.98-5.86,2.2-8.79,3.17-2.69,1.22-5.62,2.2-8.55,3.42-2.93,1.22-5.62,2.44-8.55,3.66-2.93,1.22-5.62,2.44-8.55,3.66-2.69,1.22-5.62,2.44-8.3,3.91-2.69,1.22-5.62,2.69-8.3,4.15-2.93,1.47-5.62,2.93-8.3,4.39-2.69,1.47-5.37,3.17-8.06,4.64-2.69,1.71-5.37,3.17-8.06,4.88-2.69,1.47-5.13,3.17-7.81,4.88-1.95,1.22-3.66,2.69-5.62,3.91-1.95,1.46-3.66,2.69-5.62,4.15-1.95,1.22-3.91,2.69-5.62,4.15-1.71,1.46-3.66,2.93-5.37,4.39-1.95,1.47-3.66,2.93-5.37,4.4-1.71,1.47-3.42,3.17-5.13,4.64-2.32,1.99-4.64,3.98-6.96,6.58-1.01.97-2.01,1.95-3.02,2.92-1.72,1.47-3.44,3.19-4.91,4.9-1.46,1.71-2.93,3.42-4.64,5.13-1.71,1.71-3.17,3.42-4.64,5.13-1.47,1.95-2.93,3.66-4.39,5.37-1.47,1.71-2.93,3.66-4.4,5.37-1.46,1.95-2.69,3.66-4.15,5.62-1.46,1.95-2.93,3.91-4.15,5.62-1.22,1.71-2.69,3.66-3.91,5.62-1.22,1.95-2.44,3.91-3.66,5.86-1.22,1.95-2.44,3.91-3.66,5.86-1.22,1.95-2.2,3.91-3.42,5.86-1.22,1.95-2.44,4.15-3.42,6.1-.98,1.95-2.2,4.15-3.17,6.1-.98,1.95-1.95,3.91-2.93,6.1-.98,2.2-1.95,4.15-2.93,6.35-.98,2.2-1.71,4.39-2.69,6.35-.98,1.95-1.95,4.39-2.69,6.35-.73,1.95-1.71,4.15-2.44,6.35-.73,2.2-1.46,4.4-2.2,6.59s-1.46,4.4-2.2,6.59c-.73,2.2-1.22,4.4-1.95,6.59-.49,2.2-1.22,4.4-1.71,6.59-.73,2.44-1.22,4.64-1.71,6.84-.49,2.44-.98,4.64-1.47,6.84-.98,4.15-1.71,8.55-2.44,12.94-.73,4.4-1.46,8.79-2.2,13.18-.73,4.4-1.47,8.79-1.95,13.18-.73,4.4-1.22,8.79-1.71,13.19s-.98,8.79-1.46,13.18c-.49,4.4-.98,8.79-1.22,13.18-.49,4.4-.73,8.79-.98,13.19-.24,4.4-.49,8.79-.73,13.18-.24,4.39-.49,8.79-.49,13.18-.24,4.4-.24,8.79-.24,13.19v13.18c0,4.4,0,8.79.24,13.19,0,4.4.24,8.79.49,13.18s.49,8.79.73,13.18.49,8.79.98,13.19c.24,4.39.73,8.79,1.22,13.18.49,4.39.98,8.79,1.46,13.18s.98,8.79,1.71,13.19c.49,4.39,1.22,8.79,1.95,13.18l2.2,13.19c.73,4.15,1.47,8.55,2.44,12.94.73,4.4,1.71,8.55,2.69,12.94.98,4.4,1.95,8.55,2.93,12.94s2.2,8.79,3.17,12.94c.98,4.15,2.2,8.55,3.42,12.7s2.44,8.55,3.66,12.7c1.22,4.15,2.44,8.55,3.91,12.7,1.54,4.63,2.81,8.98,4.38,13.35,1.3,3.67,2.59,7.34,3.89,11.01,1.52,4.41,3.36,8.83,4.91,13.24,1.71,4.15,3.17,8.3,4.88,12.45,0,0,2.38,5.87,5.13,12.21,3.84,8.86,21.16,44.1,45.9,91.56,13.28,24.54,32.76,57.83,59.7,95.47H144.36v302.94c-25.31-4.96-40.37-4.84-43.96-3.14,0,0-2.39,10.33,8.35,29.14-22.65-13.12-42.76-24.77-65.41-37.89-8.55-4.15-33.45-18.31-42.24-15.63-.58.23-.88.35-1.09.57h0c-.08.03,46.75,163.91,95.28,261.77,28.83,58.13,124.59,234.56,327.24,340.51,147.17,76.94,290.27,81.36,368.91,76.42,86.44-5.42,152.76-25.76,185.83-37.36,178.12-62.48,280.99-181.69,317.9-225.61,126.94-151.03,163.06-311.86,174.91-389.52.42-2.76-2.16-5.01-4.84-4.23-17.06,4.96-49.84,23.35-62.36,24.42-13.7,1.18-12.2-3.4-15.42-18.41-3.4-23.03-8.18-48.2-14.89-75.02-6.72-26.82-14.36-51.27-22.22-73.19,32.23,9.52,165.54,49.32,194.35,33.21,3.66-2.2,5.13-4.88,6.1-8.79.98-4.4-.24-8.3-2.44-11.96-7.08-11.23-36.62-28.57-48.1-38.33ZM670.59,45.66c61.77-6.1,117.2,11.96,171.65,38.33-10.01-.73-20.02-.98-30.03,0-44.93,4.15-83.02,21.97-111.83,56.89-2.93,3.91-5.62,8.3-8.55,12.45-8.3-13.67-20.27-25.64-32.72-35.65-1.95-1.71-4.15-3.17-6.35-4.88-2.2-1.46-4.4-2.93-6.59-4.4-2.2-1.46-4.39-2.69-6.59-4.15-2.2-1.22-4.64-2.69-6.84-3.66-2.44-1.22-4.64-2.44-7.08-3.42s-4.88-2.2-7.32-3.17c-2.44-.98-4.88-1.95-7.32-2.69s-4.88-1.71-7.57-2.44c-2.44-.73-5.13-1.47-7.57-1.95s-5.13-1.22-7.81-1.46c-2.69-.49-5.13-.73-7.81-1.22-2.69-.24-5.13-.49-7.81-.73-2.69-.24-5.13-.24-7.81-.49h-7.81c-2.69,0-5.13.24-7.81.49-2.69.24-5.13.49-7.81.73,38.09-23.44,85.21-35.16,129.41-38.58Zm-218.53,118.66c23.93-26.86,54.2-40.04,89.85-42.97,15.14-1.46,32.23.98,46.88,5.37,50.3,15.14,77.89,54.69,101.57,98.64,15.38-23.2,25.15-46.64,46.15-65.92,28.81-26.61,65.44-40.29,104.75-38.33,34.18,1.71,63.24,16.36,85.7,41.75,32.72,36.87,45.66,87.41,42.48,136-4.39,64.7-42,119.15-89.36,160.9-44.44,37.85-101.82,57.62-159.44,63.24-2.44.24-4.88.49-7.57.73-2.44.24-4.88.24-7.57.49-2.44.24-5.13.24-7.57.24h-15.14c-2.44,0-5.13-.24-7.57-.24s-5.13-.24-7.57-.49-4.88-.49-7.57-.73c-2.44-.24-4.88-.49-7.57-.73-2.44-.24-4.88-.73-7.57-.98-2.69-.24-4.88-.73-7.32-1.22l-7.32-1.46-7.32-1.46c-2.44-.49-4.88-1.22-7.32-1.71s-4.88-1.22-7.32-1.95-4.88-1.46-7.32-2.2c-2.44-.73-4.88-1.47-7.08-2.2-2.44-.73-4.64-1.71-7.08-2.44-2.44-.73-4.64-1.71-7.08-2.69s-4.64-1.95-7.08-2.69c-2.44-.73-4.64-1.95-6.84-2.93-2.2-.98-4.64-1.95-6.84-3.17-2.2-.98-4.64-2.2-6.84-3.42-2.2-1.22-4.4-2.2-6.59-3.42-2.2-1.22-4.39-2.44-6.59-3.66-2.2-1.22-4.39-2.44-6.59-3.91-2.2-1.22-4.4-2.69-6.35-3.91-2.2-1.47-4.15-2.69-6.35-4.15-2.2-1.47-4.15-2.93-6.1-4.4-1.95-1.47-4.15-2.93-6.1-4.4s-3.91-2.93-5.86-4.64c-1.95-1.46-3.91-3.17-5.86-4.64-46.39-38.33-77.89-93.52-83.02-153.82-4.15-47.86,7.57-99.13,39.31-136.49Zm24.82,495.67s0,0,0,0c-17.02-36.23-31.03-73.79-41.68-111.11-10.99-39.8-18.31-79.6-25.15-119.88,25.64,35.4,50.3,59.33,84.97,85.46,15.87,9.77,31.74,19.53,48.83,27.1,64.22,28.81,140.39,37.11,209.25,23.93,27.51,45.28,55.03,80.46,77.19,106.01,20.11,23.19,36.87,39.71,42.94,45.61,36.99,35.98,68.57,58.87,97.42,79.6,33.97,24.41,61.05,40.98,82.77,54.2,9.82,5.98,41.28,25.81,84.97,48.1,23.93,12.21,49.08,22.95,72.52,36.14,30.03,66.41,53.47,140.15,62.26,212.67-21.73,4.15-44.44,8.06-65.19,15.63-62.34-2.65-159.61-13.73-269.02-56.71v-178.59h-275.02c-12.73-12.35-25.53-25.53-38.28-39.6-77.14-85.11-122.57-169.58-148.79-228.55Zm611.71,728.09c-11.72-2.69-83.99,31.99-101.33,38.09-.14-.02-.3-.03-.45-.05-80.14,34.52-151.09,47.66-238.34,47.91-15.84-.24-33.51,1.12-48.8-1.23-.17,0-.34.01-.52.01h-.98c-10.01-.24-19.78-.98-29.54-1.71,102.79-56.4,196.8-94,313.51-109.87,32.47-4.4,65.19-5.13,98.15-5.86,15.87-.24,34.92,2.44,50.05-1.22,12.21-2.93,25.39-11.48,37.11-16.85,21-9.52,42.73-17.82,63.73-27.59-17.34,20.51-34.92,40.53-52.74,60.55-.19.03-.38.06-.56.1-49.64,53.45-110.42,99.12-180.88,119.65-.07.12-.15.24-.22.38-6.1,1.46-11.96,3.91-17.82,6.1,24.66-28.08,51.76-54.2,79.35-79.11,10.26-9.28,22.46-17.58,31.99-27.59l-1.71-1.71Zm-192.4,129.65c-7.26,13.02-25.53,41.53-61.19,60.95-50.05,27.25-98.85,17.24-111.44,14.25,11.63-11.01,25.93-22.65,43.22-33.45,49.62-31,98.72-39.38,129.41-41.75Zm-309.32-253.41v-276.18h292.1v166.7l-103.4,107.53-96.29-83.51-92.4,85.46Zm26.09,115.94c-23.29,1.91-84.3,3.73-146.69-33.12-43.09-25.45-68.29-58.39-80.87-77.73,14.59,4.87,34.48,11.78,57.87,20.75,12.49,4.79,40.9,15.23,64.95,26.86,36.87,17.82,68.85,43.71,104.75,63.24Zm326.01-72.46v-146.03c14.93,5.24,29.49,9.9,43.62,14.04l-43.62,131.99Zm57.98-3.34l38.01-115.01c33.38,7.62,63.14,12.39,87.92,15.49-13.1,7.23-26.8,15.57-40.8,25.2-35.53,24.43-63.53,50.61-85.13,74.32Zm126.56-6.48c-19.03,3.16-36.62,4.23-52.25,4.15,3.17-2.69,6.1-5.13,9.77-7.08,23.56-17.58,48.77-33.45,75.23-46.76,35.49-17.85,64.88-26.21,82.74-31.38,25.91-7.5,48.64-12.04,66.41-14.89-21.08,16.68-42.16,33.37-63.24,50.05-26.3,16.75-66.5,37.25-118.66,45.9ZM204.36,903.34h322.52v363.5c-4.07-1.87-8.19-3.71-12.4-5.5-71.67-30.5-136.01-38.04-177.6-39.6-52.07-28.27-96.58-46.97-132.52-59.1v-259.3Zm-35.71,298.58c16.43,6.47,33.8,10.9,49.99,17.68,73.49,30.52,114.27,57.13,167.5,118.18,12.21,13.92,25.15,27.83,35.16,43.46-37.99-7.43-110.67-27.22-179.22-85.9-37.83-32.38-62.89-66.75-78.98-93.42h5.56Zm-18.98,173.42c-34.63-60.34-48.17-116.35-54-152.4,29.02,24.41,70.27,64.92,105.6,124.8,36.18,61.31,51.64,118.35,58.8,156-29.22-23.24-73.76-64.57-110.4-128.4Zm123.66,22.25c21.03,5.64,52.75,14.13,91.56,24.42,57.9,15.35,70.63,18.03,88.39,24.17,38.82,13.43,75.2,34.18,114.02,47.37-22.89,6.81-92.49,24.31-172.43-5.41-67.69-25.16-106.46-70.66-121.54-90.55Zm102.93,197.78c1.03-.69,2.55-1.72,4.39-2.93,18.62-12.24,68.14-44.19,126.41-56,52.31-10.61,105.36-5.61,172.21,8.15-29.48,17.57-77.66,41.43-141.47,52.96-69.24,12.51-126.84,5.05-161.54-2.17Zm292.61,150.37c-113.5-10.14-198.08-50.32-243.92-76.39,28.99-10.71,67.91-22.61,114.9-30.15,19.59-3.14,84.16-12.52,168.34-3.55,99.46,10.61,179.89,41.89,235.89,70.08-50.24,19.88-149.16,51.27-275.2,40Zm376.51-170.64c-27.83,34.67-73.38,61.16-116.84,68.97l-12.32,1.59c33.69-37.6,45.96-58.13,92.66-81.66,18.93-9.54,49.07-19.73,66.29-23.82-10.5,10.99-19.04,23.93-29.79,34.92Zm162.69-35.16c-45.4,30.39-88.55,44.8-117.52,52.01,6.13-7.8,14.61-18,25.39-29.3,1.46-1.53,25.68-26.74,51.6-45.59,47.8-34.77,104.8-50.39,125.42-55.49-17.43,22-44.92,51.62-84.89,78.37Zm186.4-302.33c-5.54,24.86-17.87,64.83-47.47,105.6-41.48,57.14-93.62,83.81-118.75,94.68,11.22-29.66,31.79-73.41,69.42-117.67,34.55-40.64,70.78-66.76,96.8-82.61Zm-145.46-356.66c-206.01-86.81-349.92-219.68-442.91-327.67,20.01-6.35,38.56-14.89,56.87-24.65-.07-.09-.15-.17-.22-.26,51.76-29.54,95.22-70.32,123.3-123.3,59.91,35.57,110.08,74.71,153.31,118.51,92.85,94.06,140.03,195.96,175.82,272.64,17.56,37.62,30.34,69.73,38.82,92.29,4.96,11.72,9.93,23.44,14.89,35.16-38.58-11.35-78.72-25.38-119.88-42.73Z"/>
      <polygon class="cls-1" points="1905.52 601.61 1860.69 601.61 1860.69 1220.23 1954.83 1220.23 1954.83 963.82 2241.72 963.82 2241.72 877.75 1954.83 877.75 1954.83 687.68 2277.58 687.68 2277.58 601.61 1954.83 601.61 1905.52 601.61"/>
      <path class="cls-1" d="m2443.44,585.47c-10.76-10.16-23.91-15.24-39.45-15.24s-28.69,5.09-39.45,15.24c-10.76,10.17-16.14,23.62-16.14,40.34s5.38,29.29,16.14,39.45c10.76,10.17,23.9,15.24,39.45,15.24s28.69-5.07,39.45-15.24c10.76-10.16,16.14-23.31,16.14-39.45s-5.38-30.17-16.14-40.34Z"/>
      <rect class="cls-1" x="2359.17" y="745.06" width="89.65" height="475.17"/>
      <rect class="cls-1" x="2565.37" y="579.2" width="89.65" height="641.03"/>
      <path class="cls-1" d="m3073.26,765.23c-31.38-19.42-67.69-29.14-108.93-29.14s-79.95,9.72-112.52,29.14c-32.58,19.43-58.14,47.52-76.65,84.27-18.53,36.76-27.79,81.14-27.79,133.14s9.11,92.95,27.34,130c18.23,37.07,43.78,65.76,76.66,86.07,32.86,20.33,71.12,30.48,114.76,30.48,46.02,0,86.36-11.05,121.03-33.17,34.66-22.11,59.76-53.19,75.31-93.24l-83.38-33.17c-11.36,26.9-26.45,46.17-45.28,57.83-18.83,11.66-41.4,17.48-67.69,17.48-38.86,0-69.48-13.14-91.9-39.45-18.1-21.23-28.88-52.02-32.37-92.34h330.47c.59-7.17.9-12.85.9-17.03v-13.45c0-52-8.83-96.38-26.45-133.14-17.64-36.76-42.14-64.85-73.52-84.27Zm-230.67,177.07c4.16-39.28,14.84-69.02,32.08-89.21,22.71-26.59,52.59-39.9,89.65-39.9s63.35,13.31,84.28,39.9c15.87,20.19,25.72,49.93,29.55,89.21h-235.56Z"/>
      <path class="cls-1" d="m3584.28,758.95c-24.81-15.24-53.34-22.86-85.62-22.86s-61.57,8.38-87.86,25.1c-22.63,14.4-41.15,34.13-55.59,59.13v-75.27h-89.65v475.17h89.65v-277.03c0-42.43,10.76-74.41,32.27-95.93,21.52-21.52,47.21-32.28,77.1-32.28s55.59,10.76,77.1,32.28c21.52,21.52,32.28,53.5,32.28,95.93v277.03h89.65v-297.65c0-38.24-7.03-71.27-21.07-99.07-14.05-27.79-33.48-49.31-58.28-64.55Z"/>
      <path class="cls-1" d="m4081.86,765.23c-31.38-19.42-67.69-29.14-108.93-29.14s-79.95,9.72-112.52,29.14c-32.58,19.43-58.14,47.52-76.65,84.27-18.53,36.76-27.79,81.14-27.79,133.14s9.11,92.95,27.34,130c18.23,37.07,43.78,65.76,76.66,86.07,32.86,20.33,71.12,30.48,114.76,30.48,46.02,0,86.36-11.05,121.03-33.17,34.66-22.11,59.76-53.19,75.31-93.24l-83.38-33.17c-11.36,26.9-26.45,46.17-45.28,57.83-18.83,11.66-41.4,17.48-67.69,17.48-38.86,0-69.48-13.14-91.9-39.45-18.1-21.23-28.88-52.02-32.37-92.34h330.47c.59-7.17.9-12.85.9-17.03v-13.45c0-52-8.83-96.38-26.45-133.14-17.64-36.76-42.14-64.85-73.52-84.27Zm-230.67,177.07c4.16-39.28,14.84-69.02,32.08-89.21,22.71-26.59,52.59-39.9,89.65-39.9s63.35,13.31,84.28,39.9c15.87,20.19,25.72,49.93,29.55,89.21h-235.56Z"/>
      <path class="cls-1" d="m4552.09,970.54c-20.93-11.05-43.19-20.17-66.79-27.34-23.62-7.17-45.88-13.9-66.79-20.17-20.93-6.28-37.96-14.04-51.1-23.31-13.15-9.26-19.72-21.97-19.72-38.1s7.02-28.24,21.07-38.1c14.04-9.86,33.92-14.79,59.62-14.79s48.26,6.28,65.9,18.83c17.62,12.55,31.83,33.48,42.59,62.76l81.59-27.79c-13.15-41.24-34.67-72.62-64.55-94.14-29.9-21.52-69.34-32.28-118.34-32.28-56.79,0-100.41,13-130.9,39-30.48,26-45.73,57.53-45.73,94.59,0,28.69,6.57,51.86,19.72,69.48,13.14,17.64,30.17,31.53,51.1,41.69,20.92,10.17,43.17,18.69,66.79,25.55,23.6,6.88,45.86,13.76,66.79,20.62,20.92,6.88,37.95,15.55,51.1,26,13.14,10.46,19.72,24.96,19.72,43.48s-8.22,33.93-24.66,44.38c-16.45,10.46-38.1,15.69-65,15.69-29.89,0-54.69-6.42-74.41-19.28-19.72-12.85-34.67-34.21-44.83-64.1l-84.28,26.9c13.14,42.45,35.86,74.57,68.14,96.38,32.28,21.82,75.31,32.72,129.1,32.72,59.17,0,104.74-13.45,136.72-40.34,31.97-26.9,47.97-59.76,47.97-98.62,0-30.48-6.58-55.28-19.72-74.41-13.16-19.12-30.19-34.21-51.1-45.28Z"/>
      <path class="cls-1" d="m4933.56,1142.23c-10.46,1.79-21.67,2.69-33.62,2.69-25.1,0-44.24-6.42-57.38-19.28-13.15-12.85-19.72-33.02-19.72-60.52v-242.07h137.17v-78h-137.17v-116.55l-89.65,17.93v98.62h-67.24v78h67.24v258.2c0,49.02,13,85.93,39,110.72,26,24.81,62.31,37.21,108.93,37.21,17.33,0,32.42-.76,45.28-2.24,12.85-1.5,25.55-3.74,38.1-6.72v-84.28c-10.17,2.4-20.48,4.48-30.93,6.28Z"/>
    </g>
  </g>
</svg>