<?xml version="1.0" encoding="utf-8"?>
<!-- Generator: Adobe Illustrator 28.0.0, SVG Export Plug-In . SVG Version: 6.00 Build 0)  -->
<svg version="1.1" id="Ebene_1" xmlns="http://www.w3.org/2000/svg" xmlns:xlink="http://www.w3.org/1999/xlink" x="0px" y="0px"
	 viewBox="0 0 644.6 736.6" style="enable-background:new 0 0 644.6 736.6;" xml:space="preserve">
<style type="text/css">
	.st0{fill:#24170A;}
	.st1{fill:#D5C6B2;}
	.st2{fill:url(#SVGID_1_);}
	.st3{fill:#F9F9F8;}
</style>
<path class="st0" d="M552.8,151.5c1.7,0.3,3.5,0.7,4.8,1.9c0.9,0.9,1.3,1.9,1.2,3.2c-0.2,2.3-1.9,3.6-3.5,5
	c-1.9-0.2-3.9-0.4-5.1-2.1c-0.8-1.1-1.1-2.2-0.9-3.5C549.7,153.8,551.1,152.8,552.8,151.5z"/>
<path class="st0" d="M96.3,153.1c0.1,0,0.3,0,0.4,0c2.4,0,4.6,0.3,6.4,2.1c1.1,1.1,1.6,2.5,1.5,4.1c-0.1,2.8-2,4.6-4,6.2
	c-0.9,0.1-1.7,0.1-2.6,0.1c-0.2,0-0.4,0-0.6-0.1c-0.2,0-0.4-0.1-0.6-0.1c-0.2-0.1-0.4-0.1-0.6-0.2c-0.2-0.1-0.4-0.2-0.6-0.3
	c-0.2-0.1-0.4-0.2-0.6-0.3c-0.2-0.1-0.4-0.2-0.5-0.4c-0.2-0.1-0.3-0.3-0.5-0.4c-0.2-0.2-0.3-0.3-0.4-0.5c-1.1-1.3-1.4-3-1.2-4.7
	C92.8,155.9,94.2,154.5,96.3,153.1z"/>
<path class="st0" d="M599.9,260c0.2,0,0.5,0,0.7,0c2.3,0,4.4,0.5,6,2.3c1.3,1.4,1.7,3.1,1.5,5c-0.4,2.9-2.1,4.5-4.3,6.3
	c-0.8,0-1.5,0.1-2.3,0.1c-1.9-0.1-3.9-1.1-5.1-2.6c-1.2-1.5-1.6-3.3-1.2-5.1C595.8,262.9,597.5,261.6,599.9,260z"/>
<path class="st0" d="M530.8,105c1-0.1,2-0.2,3-0.1c1.9,0.1,4.1,1.3,5.3,2.7c1.2,1.4,1.7,3.2,1.5,5c-0.4,2.8-2.4,4.5-4.6,6.1
	c-0.9,0.1-1.8,0.3-2.7,0.3c-1.9,0-3.8-1-5.1-2.4c-1.3-1.5-1.8-3.4-1.6-5.4C527,108.4,528.6,106.8,530.8,105z"/>
<path class="st0" d="M64.3,263.1c1.1,0,2.3,0.1,3.3,0.3c1.8,0.4,3.5,1.8,4.5,3.3c0.1,0.2,0.2,0.4,0.3,0.6s0.2,0.4,0.2,0.7
	c0.1,0.2,0.1,0.5,0.2,0.7c0,0.2,0.1,0.5,0.1,0.7c0,0.2,0,0.5,0,0.7c0,0.2,0,0.5,0,0.7c0,0.2-0.1,0.5-0.1,0.7
	c-0.1,0.2-0.1,0.5-0.2,0.7c-0.9,2.8-2.8,4.1-5.4,5.3c-1.2,0-2.5,0.1-3.7-0.3c-1.8-0.6-3.3-2-4.1-3.6c-0.9-1.8-0.9-3.9-0.2-5.7
	C60.3,265.3,61.9,264.2,64.3,263.1z"/>
<path class="st0" d="M45.5,193.8c3.3,3,4.5,8.7,7.5,12.3c0.2,0.2,0.3,0.3,0.5,0.5c2.6,2.9,7.3,4.1,10.7,6.1l0.1,0.6
	c-3.2,2.9-8.5,3.9-11.4,6.9c-3,3.3-3.9,9.8-7.5,12c-2.4-4-3.5-8.9-6.9-12.3c-2.6-2.6-11.2-4.4-12.4-6.4c2-1.7,4.5-2.6,6.9-3.7
	C40.5,206.3,42,200.7,45.5,193.8z"/>
<path class="st0" d="M593,170.1c0.9,0.3,1.4,0.4,2,1.2c3.1,4,3.8,10.7,7.8,15.2c4.8,5.5,16.5,8.7,18,11.1c-1.3,1.7-4.9,2.4-6.9,3.1
	c-11.3,4.4-14.6,11.8-19.1,22.1l-0.8,0.5c-2.8-1.2-4-7.6-5.5-10.3c-0.6-1.1-1.3-2.2-2-3.3c-0.7-1.1-1.6-2.1-2.4-3
	c-5-5.3-10.8-5.3-16.5-8.8c0.4-1.9,11.8-6.1,14.1-7.8C588.4,185.2,590.4,177.5,593,170.1z"/>
<path class="st1" d="M199.5,697c0.4-0.5,0.8-1,1.3-1.4c2.3-1.5,7.2-1.7,9.9-2.3c36-7.4,74.6-5.3,111.1-3.2
	c10.6,0.6,21.9,0.6,32.4,2.3l-2.2,0.1l3.1,0.6c-29.2,3.8-58.6,6.3-88.1,5.5C244.6,698.1,221.8,693.9,199.5,697z"/>
<path class="st0" d="M196.6,306.3c-6.6-12.4-13.3-24.6-18.8-37.5c-0.7-1.7-1.4-3.3-2.1-5c-0.7-1.7-1.3-3.4-2-5.1
	c-0.6-1.7-1.3-3.4-1.9-5.1s-1.2-3.4-1.8-5.1c-0.6-1.7-1.1-3.4-1.7-5.2c-0.6-1.7-1.1-3.5-1.6-5.2c-0.5-1.7-1-3.5-1.5-5.2
	c-0.5-1.7-1-3.5-1.4-5.2s-0.9-3.5-1.3-5.3s-0.8-3.5-1.2-5.3c-0.4-1.8-0.8-3.5-1.1-5.3c-0.4-1.8-0.7-3.6-1-5.3
	c-0.3-1.8-0.6-3.6-0.9-5.4c-0.3-1.8-0.6-3.6-0.8-5.4c-0.3-1.8-0.5-3.6-0.7-5.4c-0.2-1.8-0.4-3.6-0.6-5.4c-0.2-1.8-0.4-3.6-0.5-5.4
	c-0.2-1.8-0.3-3.6-0.4-5.4c-0.1-1.8-0.2-3.6-0.3-5.4c-0.1-1.8-0.2-3.6-0.2-5.4c-0.1-1.8-0.1-3.6-0.1-5.4c0-1.8,0-3.6,0-5.4
	c0-1.8,0-3.6,0.1-5.4c0-1.8,0.1-3.6,0.2-5.4c0.1-1.8,0.2-3.6,0.3-5.4c0.1-1.8,0.2-3.6,0.4-5.4c0.1-1.8,0.3-3.6,0.5-5.4
	c0.2-1.8,0.4-3.6,0.6-5.4c0.2-1.8,0.4-3.6,0.7-5.4c0.2-1.8,0.5-3.6,0.8-5.4s0.6-3.6,0.9-5.4c0.3-1.8,0.6-3.6,1-5.3
	c0.2-0.9,0.4-1.8,0.6-2.8c0.2-0.9,0.4-1.8,0.7-2.8c0.2-0.9,0.5-1.8,0.7-2.7c0.3-0.9,0.5-1.8,0.8-2.7c0.3-0.9,0.6-1.8,0.9-2.7
	c0.3-0.9,0.6-1.8,0.9-2.7c0.3-0.9,0.7-1.8,1-2.6s0.7-1.8,1.1-2.6s0.7-1.7,1.1-2.6c0.4-0.9,0.8-1.7,1.2-2.6c0.4-0.9,0.8-1.7,1.2-2.5
	c0.4-0.8,0.9-1.7,1.3-2.5c0.4-0.8,0.9-1.7,1.4-2.5c0.5-0.8,0.9-1.6,1.4-2.4c0.5-0.8,1-1.6,1.5-2.4c0.5-0.8,1-1.6,1.5-2.4
	c0.5-0.8,1.1-1.6,1.6-2.3s1.1-1.5,1.7-2.3c0.6-0.8,1.1-1.5,1.7-2.3c0.6-0.7,1.2-1.5,1.8-2.2c0.6-0.7,1.2-1.4,1.8-2.2
	c0.6-0.7,1.2-1.4,1.9-2.1s1.3-1.4,1.9-2.1s1.3-1.4,2-2c0.7-0.7,1.3-1.3,2-2c0.7-0.7,1.4-1.3,2.1-1.9c0.7-0.6,1.4-1.3,2.1-1.9
	c0.7-0.6,1.4-1.2,2.2-1.8c0.7-0.6,1.5-1.2,2.2-1.8c0.7-0.6,1.5-1.2,2.3-1.7c0.8-0.6,1.5-1.1,2.3-1.7c0.8-0.5,1.5-1.1,2.3-1.6
	c1.1-0.7,2.1-1.4,3.2-2c1.1-0.7,2.2-1.3,3.3-2c1.1-0.6,2.2-1.3,3.3-1.9c1.1-0.6,2.2-1.2,3.4-1.8c1.1-0.6,2.3-1.2,3.4-1.7
	c1.1-0.6,2.3-1.1,3.4-1.6c1.2-0.5,2.3-1,3.5-1.5c1.2-0.5,2.3-1,3.5-1.5c1.2-0.5,2.4-0.9,3.5-1.4c1.2-0.4,2.4-0.9,3.6-1.3
	c1.2-0.4,2.4-0.8,3.6-1.2c1.2-0.4,2.4-0.8,3.6-1.1c1.2-0.4,2.4-0.7,3.7-1c1.2-0.3,2.5-0.6,3.7-0.9c1.2-0.3,2.5-0.6,3.7-0.8
	c1.2-0.3,2.5-0.5,3.7-0.7c1.2-0.2,2.5-0.5,3.7-0.7c1.3-0.2,2.5-0.4,3.8-0.6c1.3-0.2,2.5-0.3,3.8-0.5c1.3-0.1,2.5-0.3,3.8-0.4
	c1.3-0.1,2.5-0.2,3.8-0.3c1.3-0.1,2.5-0.1,3.8-0.2c1.3,0,2.5-0.1,3.8-0.1s2.5,0,3.8,0c1.3,0,2.5,0,3.8,0.1c1.3,0,2.5,0.1,3.8,0.2
	c1.3,0.1,2.5,0.2,3.8,0.3c1.3,0.1,2.5,0.2,3.8,0.4c1.3,0.1,2.5,0.3,3.8,0.5c1.3,0.2,2.5,0.4,3.8,0.6c1.3,0.2,2.5,0.4,3.7,0.6
	c1.2,0.2,2.5,0.5,3.7,0.7c33.4,6.9,64.9,26.6,83.6,55.4c16.6,25.5,21.1,55.6,14.8,85.2c64.6,32.9,109.4,89.8,140.2,154.3
	c11,23,20.8,49.4,34.3,70.7c7,11.1,15.2,21,25.2,29.6c4.7,4,16.8,11.1,19.7,15.7c0.9,1.5,1.4,3.1,1,4.9c-0.4,1.6-1,2.7-2.5,3.6
	c-11.8,6.6-66.4-9.7-79.6-13.6c6.6,19.7,12.6,40,15.2,60.7c6.7-2.3,13.4-4.7,20-7.3c7.2-2.9,15.3-7.8,23-8.8c1,0.5,1.4,0.6,1.7,1.7
	c1.6,7.1-20.8,63.4-25.7,73.3c10.3,5.2,29.3,15.1,35.2,24.9c1,1.6,1.5,3.4,0.8,5.3c-0.7,1.7-2.2,3-3.9,3.6
	c-5.9,1.9-12.2-6.3-17.3-8.6c-5.3-2.4-10.6-4.2-16.3-5c-32.6-4.6-58.9,21.8-82.7,39.9c3-0.7,6.1-1.3,9.2-1.8
	c0.2-0.2,0.3-0.4,0.5-0.7c0.1-0.1,0.2-0.3,0.3-0.4c2.6-2.9,14.2-5.4,18.4-7.1c7.5-3,24.1-12,30.9-12.9c2.7-1.9,5.2-3.7,8.2-5
	c0.2-0.1,0.4-0.2,0.5-0.2c-11.6,23.8-24.4,47-40.6,67.9c-32.6,42.3-79.9,75-130.2,92.4c-76.3,26.3-155,19.1-227.2-16
	c-0.6-0.3-1.3-0.7-1.9-1c5.7-3.7,12.6-5.7,19.3-6.7c22.3-3.1,45.1,1.2,67.5,1.8c29.5,0.8,58.8-1.8,88.1-5.5l18.5-2.5
	c-24.4-9.4-48.6-17-74.5-21.3c-36.3-6.1-82.5-2.3-116,13.8c-6.8,3.3-12.9,7.5-19,11.8c-43.5-29-76.7-61.6-102.6-107.3
	c-5.2-9.2-10.7-18.3-14.2-28.4c6.5,0.8,11,2.9,16.4,6.6c6.8,1.7,15.9,8.6,22.4,12.2c7.9,4.3,16.4,8.3,24,13.1c0.9,0.5,1.3,1,1.8,1.8
	l7.2,2.3c-17.4-18.7-32.7-39.1-59-45.2c-0.8-0.2-1.6-0.4-2.4-0.5s-1.6-0.3-2.5-0.4c-0.8-0.1-1.6-0.2-2.5-0.3
	c-0.8-0.1-1.7-0.1-2.5-0.2c-0.8,0-1.7-0.1-2.5-0.1c-0.8,0-1.7,0-2.5,0c-0.8,0-1.7,0.1-2.5,0.2c-0.8,0.1-1.7,0.2-2.5,0.3
	c-0.8,0.1-1.6,0.2-2.5,0.4c-0.8,0.1-1.6,0.3-2.4,0.5s-1.6,0.4-2.4,0.6c-0.8,0.2-1.6,0.5-2.4,0.7c-0.8,0.3-1.6,0.5-2.3,0.8
	s-1.5,0.6-2.3,0.9c-0.8,0.3-1.5,0.7-2.3,1.1c-0.7,0.4-1.5,0.8-2.2,1.2c-3.7,2-7.1,4.5-10.7,6.7c-2,1.2-4,2.3-6.3,1.6
	c-0.2-0.1-0.4-0.1-0.6-0.2c-0.2-0.1-0.4-0.2-0.6-0.3c-0.2-0.1-0.4-0.2-0.5-0.3c-0.2-0.1-0.3-0.2-0.5-0.4c-0.2-0.1-0.3-0.3-0.5-0.4
	c-0.1-0.1-0.3-0.3-0.4-0.5c-0.1-0.2-0.3-0.3-0.4-0.5c-0.1-0.2-0.2-0.4-0.3-0.5c-0.8-1.4-1-3.1-0.5-4.6c2.4-7.6,25.2-21.8,33.4-25.8
	c-4.3-10-27-63.7-24.7-71.6c0.2-0.6,0.2-0.6,0.7-0.8c3.6-1.1,13.8,4.7,17.3,6.4c0.5-7.2,0.3-14.6,0.3-21.8l0-35.2
	c0-6.4-0.3-12.9,0.3-19.2c0.9-9.4,4.8-17.5,12.3-23.5c10.7-8.6,22.7-6.9,35.6-7.1c4.9-0.1,10.5-0.8,15.3-0.1c7.1,1,11.3,8,15.3,13.3
	c0.8-18.9-2.6-35,11.7-50.4c13.2-14.3,28.8-13.3,46.6-13.2C175.1,306.6,185.9,306.8,196.6,306.3z"/>
<path class="st1" d="M313.5,651.4c0.1-0.2,0.2-0.3,0.3-0.5c2.1-2.7,8.6-3.8,11.8-4.7c6.4-1.8,12.6-3.8,18.8-6.2
	c5.4-2.1,11.8-5.9,17.4-6.7C349.9,644.4,329.4,650,313.5,651.4z"/>
<path class="st1" d="M391,672.3c3.4-4.7,13.1-7,18.3-9.6c5-2.6,9.9-5.6,14.5-8.7c4.3-2.9,9.1-7.2,14-8.9
	C426.4,659.3,408.8,669.1,391,672.3z"/>
<path class="st1" d="M521.3,586.8c0.2-0.2,0.3-0.4,0.5-0.7c0.1-0.1,0.2-0.3,0.3-0.4c2.6-2.9,14.2-5.4,18.4-7.1
	c7.5-3,24.1-12,30.9-12.9C557.7,578.4,539.2,583.9,521.3,586.8z"/>
<path class="st1" d="M192.8,543.8c5.8,0.6,16.9,7.1,22.7,9.7c6.9,3,14,5.6,21.3,7.2c3.4,0.7,14,1.5,15.9,4c0.1,0.1,0.2,0.2,0.3,0.4
	c-17.4,0.8-33.7-4.8-48.6-13.4C200.5,549.4,196.3,546.9,192.8,543.8z"/>
<path class="st1" d="M63.7,565.7c6.8,1.7,15.9,8.6,22.4,12.2c7.9,4.3,16.4,8.3,24,13.1c0.9,0.5,1.3,1,1.8,1.8
	C93.1,589.8,76.8,579.2,63.7,565.7z"/>
<path class="st1" d="M452.4,530.4c4.8,3.1,40.9-8.4,48.3-11.1c5.4-2,12-6,17.7-6.5c-13.5,11.2-31.4,16.9-48.6,18.8
	c-7.1,0.8-14.3,0.9-21.4,1.7C449.7,532.2,450.9,531.2,452.4,530.4z"/>
<path class="st1" d="M176.7,643.6c1-0.7,1.9-1,3.1-1.3c11.2-2.4,23.2-3.3,34.5-4.8c11.9-1.6,24.1-4,36-4.8c2-0.1,3.8,0.1,5.7,0.4
	c-20.6,5.6-39,9-60.3,10.2C189.5,643.6,182.9,644.1,176.7,643.6z"/>
<path class="st1" d="M195.2,505.7c4.4-7.9,10.2-15.5,15.1-23.1c2.3-3.6,4.3-7.9,6.9-11.3c0.5-0.6,1-1,1.7-1.4
	c-4.3,13.6-7.9,27.1-10,41.2C204.3,509.2,199.8,507.3,195.2,505.7z"/>
<linearGradient id="SVGID_1_" gradientUnits="userSpaceOnUse" x1="194.405" y1="96.3853" x2="197.4094" y2="107.6043" gradientTransform="matrix(1 0 0 -1 0 710.0348)">
	<stop  offset="0" style="stop-color:#D2C8B9"/>
	<stop  offset="1" style="stop-color:#E5DFDD"/>
</linearGradient>
<path class="st2" d="M156.4,600.3c7.5,0.4,19.8,6.2,28.8,7.5c7.9,1.1,16,1.9,23.9,2.1c6.9,0.2,14.2-0.4,21,0.9
	c2.3,0.4,4.1,1.5,6.2,2C209.2,617.4,180.1,615.3,156.4,600.3z"/>
<path class="st1" d="M303.4,419.1c6.1,3.1,10.4,8,12.4,14.6c0.9,3,1,6.2,0.9,9.4c-4.3,0-18.4,1.1-21.5-0.6l-0.4-0.5
	c0.6-1.4,0.8-2.7,1.3-4.1C298.4,431.4,301.8,425.8,303.4,419.1z"/>
<path class="st1" d="M417.8,610.3c0.1-0.2,0.2-0.3,0.3-0.5c2.3-3.2,21.9-13.8,26.5-16.6c9.2-5.8,18.4-11.9,27.2-18.4
	c5.5-4,11.1-9.3,17-12.7c1-0.6,2.2-0.8,3.4-1C471.8,583.1,446.8,601.9,417.8,610.3z"/>
<path class="st1" d="M99.9,515.6c1.5,0,2.4,0.3,3.7,1c14.7,8.1,28.3,18.2,42.6,27.1c5.7,3.5,26.6,14.7,30.2,18.2
	c0.6,0.6,0.6,0.6,1,1.3C148.2,555.5,121.4,536.4,99.9,515.6z"/>
<path class="st1" d="M295.6,603.1c0.1,0,0.2,0,0.4,0c6.4-0.1,12.3-1.4,18.6-2.1c16.9-2,33.9-4.3,50.6-7.6
	c9.9-1.9,41.6-10.4,48.8-9.4c-32.9,14.2-62,19.6-97.8,19.7C309.5,603.6,302,604.2,295.6,603.1z"/>
<path class="st3" d="M306,652.4c5.9-4.5,11.5-9.6,17.7-13.7c16.1-10.7,34.5-13.4,53-17.1c-4.8,4.1-9.6,8.2-14.9,11.7
	c-5.6,0.7-12.1,4.6-17.4,6.7c-6.2,2.4-12.4,4.4-18.8,6.2c-3.2,0.9-9.8,2-11.8,4.7c-0.1,0.2-0.2,0.3-0.3,0.5L306,652.4z"/>
<path class="st3" d="M384.9,674c13.8-15.4,23.9-26.4,43.6-34.8c7.1-3,14.4-5.4,21.5-8.4c-4.3,4.5-7.8,9.8-12.2,14.3
	c-4.9,1.7-9.7,6-14,8.9c-4.7,3.1-9.6,6.1-14.5,8.7c-5.2,2.7-14.9,5-18.3,9.6L384.9,674z"/>
<path class="st3" d="M167.5,519.9c7.7,3.4,15.8,5.7,23.7,8.5c9,3.1,18,6.9,26.6,11c15.1,7.3,28.2,17.9,42.9,25.9
	c-2.5-0.1-5.1-0.1-7.6-0.3c-0.1-0.1-0.2-0.2-0.3-0.4c-2-2.5-12.6-3.3-15.9-4c-7.3-1.6-14.4-4.2-21.3-7.2c-5.9-2.5-16.9-9-22.7-9.7
	C183.4,537.2,175.2,528.6,167.5,519.9z"/>
<path class="st3" d="M452.4,530.4c19.3-14.4,41.3-26,64.7-32c9-2.3,18.2-3.5,27.2-6.1c-6,5.6-19,16.6-25.9,20.4
	c-5.7,0.5-12.2,4.5-17.7,6.5C493.2,522,457.2,533.5,452.4,530.4z"/>
<path class="st3" d="M456.3,652c3-4.2,6.9-8.1,10.4-12c23.4-25.8,42.2-29.5,72.5-41.4c-8.8,9.7-17.1,19.3-27.2,27.8
	c-14.3,11.6-31.2,20.1-49.4,23.6L456.3,652z"/>
<path class="st1" d="M462.6,650l0.9-1.4c11.1-6,23-10.5,34.3-16.1c2.2-1.1,10.6-6.2,12.4-6.3c0.6,0,1.3,0.1,1.9,0.2
	C497.7,638,480.8,646.5,462.6,650z"/>
<path class="st3" d="M75.7,491l0.7,0.3c7.4,3.2,15.4,5.1,22.8,8.2c30.1,12.5,46.8,23.4,68.6,48.4c5,5.7,10.3,11.4,14.4,17.8
	l-4.9-2.3c-0.4-0.6-0.4-0.6-1-1.3c-3.6-3.5-24.5-14.7-30.2-18.2c-14.3-8.9-27.9-19-42.6-27.1c-1.3-0.7-2.2-1-3.7-1
	C91.3,507.8,83.4,499.7,75.7,491z"/>
<path class="st1" d="M290.2,348.6c7,5,11.9,11.8,13.3,20.5c1.6,10,0.2,21.1,0.5,31.3l-39.4,0.1c-4.8,0-14.9-0.9-19.1,0.1
	c0.7-3.2,0.5-6.4,1.9-9.4c2.6,2.1,5.2,3.6,8.6,3.8c4,0.3,7.8-1.3,10.8-4c3.8-3.4,4.9-7,5.1-11.9
	C277.7,371.2,287.8,357.8,290.2,348.6z"/>
<path class="st3" d="M161.3,644.8c0.6-0.4,1.2-0.8,1.8-1.2C206,615.3,236.8,614,285.4,624c-9.7,3.5-19.3,6.5-29.3,9.1
	c-1.9-0.4-3.8-0.6-5.7-0.4c-11.9,0.9-24.1,3.2-36,4.8c-11.4,1.5-23.3,2.5-34.5,4.8c-1.2,0.3-2.1,0.6-3.1,1.3
	C171.5,643.8,166.4,644.1,161.3,644.8z"/>
<path class="st3" d="M121.6,572.4c12.5,3.4,25,6.8,37.5,10c12.2,3,24.2,5.8,36.2,9.9c15.9,5.5,30.8,14,46.7,19.4l-5.7,1.1
	c-2.1-0.6-4-1.6-6.2-2c-6.8-1.2-14.1-0.7-21-0.9c-8-0.2-16.1-1-23.9-2.1c-8.9-1.3-21.3-7.1-28.8-7.5
	C142.8,592.9,132.2,583.3,121.6,572.4z"/>
<path class="st3" d="M284.3,18.7c25.3-2.5,48,4.9,70.3,15.7c-4.1-0.3-8.2-0.4-12.3,0c-18.4,1.7-34,9-45.8,23.3
	c-1.2,1.6-2.3,3.4-3.5,5.1c-3.4-5.6-8.3-10.5-13.4-14.6c-0.8-0.7-1.7-1.3-2.6-2c-0.9-0.6-1.8-1.2-2.7-1.8c-0.9-0.6-1.8-1.1-2.7-1.7
	c-0.9-0.5-1.9-1.1-2.8-1.5c-1-0.5-1.9-1-2.9-1.4c-1-0.4-2-0.9-3-1.3c-1-0.4-2-0.8-3-1.1c-1-0.3-2-0.7-3.1-1c-1-0.3-2.1-0.6-3.1-0.8
	c-1-0.2-2.1-0.5-3.2-0.6c-1.1-0.2-2.1-0.3-3.2-0.5c-1.1-0.1-2.1-0.2-3.2-0.3c-1.1-0.1-2.1-0.1-3.2-0.2c-1.1,0-2.1,0-3.2,0
	c-1.1,0-2.1,0.1-3.2,0.2c-1.1,0.1-2.1,0.2-3.2,0.3C246.9,24.9,266.2,20.1,284.3,18.7z"/>
<path class="st1" d="M156.8,386.4c6.6,3,9.7,7.5,13.1,13.5c-2.9,4.2-6,8.4-7.3,13.4c-2.6,9.8-1.5,21.8-1.5,31.9l0.1,48.9
	c-20.8-7.4-41.6-14.3-62.9-20.2c0.8-0.3,0.9-0.4,1.4-1.1c3.3-4.5,7.6-8.2,11.4-12.3c7.7-8.4,22.9-27.1,25.6-37.7
	c2.8-0.9,5.3-1.8,7.5-4c2.8-2.8,3.2-6.1,3.2-9.9C150.1,401.2,154.2,394.1,156.8,386.4z"/>
<path class="st1" d="M416.4,444.1c10.7,0.2,36.1-1.4,44.9,0.8c0.5,0.1,1,0.3,1.4,0.4c0.5,0.2,0.9,0.3,1.4,0.5
	c0.5,0.2,0.9,0.4,1.4,0.6c0.4,0.2,0.9,0.5,1.3,0.7c0.4,0.2,0.9,0.5,1.3,0.8c0.4,0.3,0.8,0.6,1.2,0.9c0.4,0.3,0.8,0.6,1.2,1
	c0.4,0.3,0.7,0.7,1.1,1c9.3,9.4,6.8,24.3,6.5,36.4c-8.3,3-15.9,6.3-23.7,10.5c-13,7-25.8,15.5-38.1,23.9
	C415.9,495.7,416,469.9,416.4,444.1z"/>
<path class="st1" d="M177.6,175.7c10.5,14.5,20.6,24.3,34.8,35c-0.2,5.5,1.7,11.6,3.1,16.9c0.5,1.9,1.1,3.7,1.7,5.6
	c0.6,1.9,1.2,3.7,1.8,5.5c0.6,1.8,1.3,3.7,2,5.5c0.7,1.8,1.4,3.6,2.1,5.4c0.7,1.8,1.5,3.6,2.3,5.4c0.8,1.8,1.6,3.5,2.4,5.3
	c0.8,1.8,1.7,3.5,2.6,5.2c0.9,1.7,1.8,3.4,2.7,5.1c0.9,1.7,1.9,3.4,2.9,5.1c1,1.7,2,3.3,3,5c1,1.6,2.1,3.3,3.2,4.9
	c1.1,1.6,2.2,3.2,3.3,4.8s2.3,3.1,3.5,4.7c1.2,1.5,2.4,3.1,3.6,4.6c1.2,1.5,2.5,3,3.7,4.5c1.3,1.5,2.5,2.9,3.8,4.4
	c3.8,4.2,8.1,8,11.8,12.3c-11.9,0.7-24,0.4-36,0.3c-21.8-27.9-38.3-62.4-48-96.4C183.4,208.5,180.4,192.2,177.6,175.7z"/>
<path class="st1" d="M351.6,413.8l23.5,0c6.2,0.1,11.2,0.4,15.7,5.2c2.5,2.7,4.7,6.3,5.3,9.9c1.4,7.8,0.3,26.7,0.3,35.6
	c0,22.6,1,45.5,0.2,68c-4.7,1-9.3,2.1-14,3.3l-0.4-8.8c-2-23.5-5-53.1-21.4-71.2c-6.4-7.1-14.4-11.8-24.1-12.3
	c-0.1-12.1-1.8-19.8-9.1-29.6L351.6,413.8z"/>
<path class="st1" d="M338.5,461.5c10.9,6.4,15.6,18.9,18.6,30.5c1,4,1.9,8,2.7,12c0.8,4,1.5,8.1,2,12.1c0.6,4.1,1,8.1,1.4,12.2
	c0.3,4.1,0.6,8.2,0.7,12.3c-24,6.1-48,14.8-67.9,29.9c-2.1-2.9-4.3-5.7-6.6-8.3c-2.3-2.7-4.7-5.3-7.2-7.8c-2.5-2.5-5.1-4.9-7.9-7.1
	s-5.5-4.4-8.4-6.4c-5.3-3.6-12.1-7-16.5-11.7c7.8,0.9,28.7,12.9,35.3,17.4c8-8.9,16.2-18,23-27.9c5.1-7.4,9.3-15.3,13.8-23.1
	c3.3-1.2,7.1-3.1,8.7-6.5c1.4-3,0.8-5.8-0.3-8.8C333.4,474.7,335.9,467.7,338.5,461.5z"/>
<path class="st3" d="M181.3,500c-0.8-14.7-0.2-29.8-0.2-44.5c0-8.6-1.3-18.6,0.3-27c0.6-3.2,2-5.5,4.8-7.3c2.6-1.6,5.7-2.4,8.8-2.6
	c7.5-0.6,15.4-0.1,22.9-0.1l42.3,0.1c9.5,0,35.3-1.3,43.2,0.4c-1.7,6.7-5,12.4-7.5,18.8c-0.5,1.4-0.7,2.7-1.3,4.1
	c-2.7-3.7-4.8-6.3-9.6-6.9c-4.3-0.6-8.9,0.1-13.3,0.1c-11.8,0.1-24.9-1.9-34.8,6c-8.9,7.1-14,18.5-18.2,28.7
	c-0.6,0.4-1.2,0.8-1.7,1.4c-2.6,3.4-4.6,7.7-6.9,11.3c-4.9,7.6-10.7,15.2-15.1,23.1C190.4,504,185.9,502.1,181.3,500z"/>
<path class="st3" d="M283.5,602.5c42.1-23.1,80.6-38.5,128.4-45c13.3-1.8,26.7-2.1,40.2-2.4c6.5-0.1,14.3,1,20.5-0.5
	c5-1.2,10.4-4.7,15.2-6.9c8.6-3.9,17.5-7.3,26.1-11.3c-7.1,8.4-14.3,16.6-21.6,24.8c-1.2,0.2-2.3,0.4-3.4,1
	c-5.9,3.3-11.5,8.6-17,12.7c-8.8,6.5-18,12.5-27.2,18.4c-4.6,2.9-24.3,13.4-26.5,16.6c-0.1,0.2-0.2,0.3-0.3,0.5
	c-2.5,0.6-4.9,1.6-7.3,2.5c10.1-11.5,21.2-22.2,32.5-32.4c4.2-3.8,9.2-7.2,13.1-11.3l-0.7-0.7c-4.8-1.1-34.4,13.1-41.5,15.6
	c-7.2-1-38.8,7.5-48.8,9.4c-16.7,3.3-33.8,5.6-50.6,7.6c-6.3,0.8-12.2,2-18.6,2.1c-0.1,0-0.2,0-0.4,0
	C291.5,603.1,287.5,602.8,283.5,602.5z"/>
<path class="st3" d="M131.3,368c0-5.5-0.5-11.8,2.5-16.7c1.9-3.1,6.1-5.8,9.7-6.4c7.5-1.4,17.7-0.4,25.5-0.4l51.5,0
	c12,0,24,0,36-0.1c8-0.1,16.3-0.6,24.2,0.3c3.5,0.4,6.5,2,9.4,4c-2.4,9.2-12.5,22.6-18.2,30.5c-0.2,4.9-1.3,8.5-5.1,11.9
	c-2.9,2.6-6.8,4.2-10.8,4c-3.4-0.2-6-1.7-8.6-3.8c-1.4,3-1.3,6.2-1.9,9.4c-3.8-2.9-5.5-8-10.1-11.5c-16.4-0.9-33.2-0.2-49.7-0.1
	c-2.2-4.5-4.5-8.8-8.1-12.3c-8.5-8.3-17.9-8.7-29.1-8.7L131.3,368z"/>
<path class="st3" d="M363.1,216.5c10.7,12.5,20.4,25.2,32.3,36.7c39.7,38.7,87.5,68.9,136.4,94.5c10.3,5.4,21.9,11.9,32.5,16.3
	c2.1,4.7,4.2,9.5,6,14.3c-16.3-6-33-11-49.1-17.5c-65.5-26.7-145-71.1-181.4-134.2C348,224,355.6,220.5,363.1,216.5z"/>
<path class="st3" d="M227.2,518.4c1.2-12.2,4.4-24.6,8.4-36.2c2.6-7.7,6.5-16.9,14.3-20.5c2.8-1.3,5.9-1.6,8.9-1.8
	c12.3-0.8,24.9,0.2,37.3,0.2c11.7,0,23.6-0.9,35.2-0.1c2.5,0.2,4.7,0.6,7.1,1.6c-2.6,6.2-5.1,13.2-8.8,18.9c1.1,2.9,1.7,5.8,0.3,8.8
	c-1.6,3.4-5.4,5.3-8.7,6.5c-4.5,7.7-8.7,15.7-13.8,23.1c-6.8,9.9-15,19-23,27.9c-6.5-4.5-27.5-16.5-35.3-17.4
	C241.9,525.8,234.6,522,227.2,518.4z"/>
<path class="st3" d="M46.9,393.9c1.1-1.7,2.2-3.4,3.8-4.7c2-1.6,4.3-2.4,6.8-2.7c5.3-0.6,11-0.2,16.3-0.2l28.9,0
	c10.5,0,20.9-0.1,31.4-0.2c7.5-0.1,15.3-0.5,22.8,0.2c-2.6,7.8-6.8,14.9-9.4,22.6c0,3.8-0.4,7.1-3.2,9.9c-2.2,2.2-4.7,3-7.5,4
	c-2.7,10.6-17.9,29.3-25.6,37.7c-3.8,4.1-8.1,7.8-11.4,12.3c-0.5,0.7-0.6,0.8-1.4,1.1c-13.3-3.7-26.6-7-40.1-10
	c-0.5,4.5-0.2,9.1-0.2,13.7c-3.9-1.5-7.8-2.9-11.7-4.4c0-11.8,0.3-23.5,0.2-35.3C46.5,423.3,45.8,408.4,46.9,393.9z"/>
<path class="st1" d="M385.9,310.2l0.5,0.3c7.2,4.7,13.8,10.7,20.8,15.8c10.9,7.9,22.4,15.1,33.9,22.2c11.3,7,22.9,13.6,34.8,19.7
	c9.8,5,20.1,9.4,29.7,14.8c12.3,27.2,21.9,57.4,25.5,87.1c-8.9,1.7-18.2,3.3-26.7,6.4c0.2-15.7-2.2-28-13.6-39.8
	c-8.7-8.9-18.6-12-30.8-12l-43.7,0.3c-1.5-9.9-6-18.2-14.1-24.2c-1-0.8-2.1-1.5-3.1-2.1s-2.2-1.2-3.3-1.8s-2.3-1-3.5-1.4
	c-1.2-0.4-2.4-0.7-3.6-1c-8-1.7-16.8-1-25-1c-11.9,0.1-23.8,0.1-35.8,0.1c0.1-19.3,1.5-33.6-7.7-51.4c11.1,4.3,24,13.1,35.2,18.7
	c7.3,3.5,14.6,6.9,22.1,10c7.4,3.1,15,6,22.6,8.7c7.6,2.7,15.3,5.1,23.1,7.4c7.8,2.2,15.6,4.2,23.5,6c6.6,1.5,13.3,3.5,20.1,3.8
	c-3.5-3.8-8.4-6.1-12.4-9.3c-6.5-5.2-12.8-10.8-19-16.3c-16.5-14.4-30.9-33.4-43.3-51.4c-1.8-2.6-4.7-5.9-5.6-8.8
	C386,310.7,386,310.4,385.9,310.2z"/>
<path class="st1" d="M413.5,165.9c66.7,39.6,103.9,90,134.8,160.2c5.5,12.5,11.2,25.1,15.9,37.8c-10.6-4.4-22.2-10.9-32.5-16.3
	c-49-25.6-96.7-55.8-136.4-94.5c-11.8-11.5-21.6-24.2-32.3-36.7C384.2,204.3,402,187.6,413.5,165.9z"/>
<path class="st3" d="M212.4,210.7c6.5,4,13,8,20,11.1c26.3,11.8,57.5,15.2,85.7,9.8c14,22.9,30,43.3,49.2,62.1
	c5.9,5.8,13,10.5,18.7,16.4c0.1,0.3,0.1,0.6,0.2,0.8c0.9,2.9,3.8,6.2,5.6,8.8c12.3,18,26.8,37,43.3,51.4c6.3,5.5,12.5,11.1,19,16.3
	c4,3.2,8.8,5.5,12.4,9.3c-6.7-0.3-13.5-2.3-20.1-3.8c-7.9-1.8-15.7-3.8-23.5-6c-7.8-2.2-15.4-4.7-23.1-7.4
	c-7.6-2.7-15.2-5.6-22.6-8.7c-7.4-3.1-14.8-6.5-22.1-10c-11.3-5.6-24.1-14.4-35.2-18.7c-2.6-3.3-5.2-6.7-8.2-9.6
	c-11.5-11-24.6-12.1-39.7-11.8c-3.7-4.2-8-8.1-11.8-12.3c-1.3-1.4-2.6-2.9-3.8-4.4c-1.3-1.5-2.5-3-3.7-4.5c-1.2-1.5-2.4-3-3.6-4.6
	c-1.2-1.5-2.3-3.1-3.5-4.7s-2.2-3.2-3.3-4.8c-1.1-1.6-2.1-3.2-3.2-4.9c-1-1.6-2-3.3-3-5c-1-1.7-2-3.4-2.9-5.1
	c-0.9-1.7-1.9-3.4-2.7-5.1c-0.9-1.7-1.8-3.5-2.6-5.2c-0.8-1.8-1.7-3.5-2.4-5.3c-0.8-1.8-1.6-3.6-2.3-5.4c-0.7-1.8-1.4-3.6-2.1-5.4
	c-0.7-1.8-1.3-3.6-2-5.5c-0.6-1.8-1.2-3.7-1.8-5.5c-0.6-1.9-1.1-3.7-1.7-5.6C214,222.2,212.1,216.2,212.4,210.7z"/>
<path class="st3" d="M231.6,49.7c6.2-0.6,13.2,0.4,19.2,2.2c20.6,6.2,31.9,22.4,41.6,40.4c6.3-9.5,10.3-19.1,18.9-27
	c11.8-10.9,26.8-16.5,42.9-15.7c14,0.7,25.9,6.7,35.1,17.1c13.4,15.1,18.7,35.8,17.4,55.7c-1.8,26.5-17.2,48.8-36.6,65.9
	c-18.2,15.5-41.7,23.6-65.3,25.9c-1,0.1-2,0.2-3.1,0.3c-1,0.1-2,0.1-3.1,0.2c-1,0.1-2.1,0.1-3.1,0.1c-1,0-2.1,0-3.1,0
	c-1,0-2.1,0-3.1,0c-1,0-2.1-0.1-3.1-0.1c-1,0-2.1-0.1-3.1-0.2c-1-0.1-2-0.2-3.1-0.3c-1-0.1-2-0.2-3.1-0.3c-1-0.1-2-0.3-3.1-0.4
	s-2-0.3-3-0.5c-1-0.2-2-0.4-3-0.6c-1-0.2-2-0.4-3-0.6c-1-0.2-2-0.5-3-0.7c-1-0.2-2-0.5-3-0.8c-1-0.3-2-0.6-3-0.9
	c-1-0.3-2-0.6-2.9-0.9c-1-0.3-1.9-0.7-2.9-1c-1-0.3-1.9-0.7-2.9-1.1c-1-0.4-1.9-0.8-2.9-1.1s-1.9-0.8-2.8-1.2
	c-0.9-0.4-1.9-0.8-2.8-1.3c-0.9-0.4-1.9-0.9-2.8-1.4s-1.8-0.9-2.7-1.4c-0.9-0.5-1.8-1-2.7-1.5c-0.9-0.5-1.8-1-2.7-1.6
	c-0.9-0.5-1.8-1.1-2.6-1.6c-0.9-0.6-1.7-1.1-2.6-1.7c-0.9-0.6-1.7-1.2-2.5-1.8c-0.8-0.6-1.7-1.2-2.5-1.8c-0.8-0.6-1.6-1.2-2.4-1.9
	c-0.8-0.6-1.6-1.3-2.4-1.9c-19-15.7-31.9-38.3-34-63c-1.7-19.6,3.1-40.6,16.1-55.9C204.6,56.3,217,50.9,231.6,49.7z"/>
<path class="st0" d="M235.3,95.6c3.1-0.3,6.3-0.3,9.3,0.4c20.4,4.8,23.3,31.8,30.3,48c4.9,11.3,11,21.7,17.4,32.2
	c9.3-13,16.6-27.8,22-42.8c2.8-7.7,4.7-16.1,8.7-23.3c3.7-6.5,9.4-12,16.8-13.9c6.2-1.6,12.6-0.5,18.1,2.8
	c5.8,3.6,10.2,9.4,11.5,16.2c1.3,6.6-0.2,14.1-4.1,19.6c-4.6,6.6-11.3,9.3-18.9,10.7c-2.7,0.1-5.2-0.2-7.8-1
	c-7.7-2.4-12.6-7.7-16.2-14.6c-3.9,31.9-7,46.1-30.1,69.9c-24.1-23.8-25.8-38.3-29.8-70.1c-3.4,6.7-8.5,11.9-15.8,14.3
	c-6.2,2.1-12.8,1.9-18.6-1.2c-6-3.2-10.2-9.2-12-15.7c-0.1-0.4-0.2-0.8-0.3-1.3c-0.1-0.4-0.2-0.8-0.2-1.3c-0.1-0.4-0.1-0.8-0.2-1.3
	c0-0.4-0.1-0.9-0.1-1.3c0-0.4,0-0.9,0-1.3c0-0.4,0-0.9,0-1.3c0-0.4,0-0.9,0.1-1.3c0-0.4,0.1-0.9,0.1-1.3c0.1-0.4,0.1-0.9,0.2-1.3
	c0.1-0.4,0.2-0.8,0.3-1.3c0.1-0.4,0.2-0.8,0.3-1.2c0.1-0.4,0.3-0.8,0.4-1.2c0.1-0.4,0.3-0.8,0.5-1.2c0.2-0.4,0.3-0.8,0.5-1.2
	c0.2-0.4,0.4-0.8,0.6-1.2c0.2-0.4,0.4-0.8,0.6-1.1C222.7,100.8,228.3,97.5,235.3,95.6z"/>
<path class="st3" d="M339.9,103.9c1.3,0.1,2.6,0.2,3.8,0.7c2.5,1,4.6,2.8,5.6,5.3c0.1,0.3,0.2,0.5,0.3,0.8c0.1,0.3,0.1,0.6,0.2,0.8
	c0,0.3,0.1,0.6,0.1,0.9c0,0.3,0,0.6,0,0.9c0,0.3,0,0.6-0.1,0.9c0,0.3-0.1,0.6-0.2,0.8c-0.1,0.3-0.1,0.6-0.2,0.8
	c-0.1,0.3-0.2,0.5-0.3,0.8c-1.4,3-3.5,4-6.4,5.2c-0.8,0-1.7,0.1-2.6,0c-2.1-0.3-4.5-2.2-5.6-3.9c-1.4-2.2-1.6-5.1-0.9-7.6
	C334.6,107,337.1,105.5,339.9,103.9z"/>
<path class="st3" d="M232.4,104c1.3-0.1,2.6-0.1,3.9,0.2c2.2,0.6,4.3,2.2,5.4,4.2c1.3,2.3,1.5,4.9,0.7,7.4c-1,3.3-3.3,4.8-6.2,6.3
	c-1,0-2.1,0.1-3.1-0.2c-2.4-0.6-4.9-2.6-6.1-4.8c-1.2-2.4-1.3-5-0.5-7.5C227.6,106.8,229.9,105.3,232.4,104z"/>
</svg>
